inDegrees=yes
name=ik_tiny_file
DataType=double
version=3
OpenSimVersion=4.4-2022-07-23-0e9fedc
endheader
time	pelvis_tilt	pelvis_list	pelvis_rotation	pelvis_tx	pelvis_ty	pelvis_tz	hip_flexion_r	hip_adduction_r	hip_rotation_r	knee_angle_r	knee_angle_r_beta	ankle_angle_r	subtalar_angle_r	mtp_angle_r	hip_flexion_l	hip_adduction_l	hip_rotation_l	knee_angle_l	knee_angle_l_beta	ankle_angle_l	subtalar_angle_l	mtp_angle_l	lumbar_extension	lumbar_bending	lumbar_rotation	arm_flex_r	arm_add_r	arm_rot_r	elbow_flex_r	pro_sup_r	wrist_flex_r	wrist_dev_r	arm_flex_l	arm_add_l	arm_rot_l	elbow_flex_l	pro_sup_l	wrist_flex_l	wrist_dev_l
4.92	9.166201904542806	-4.223784408272441	0.2647148831501019	0	0.9399999999999999	0	42.23415838762875	-10.14124826965551	0	61.12988925458423	1.066917838871997	-4.907551512388476	0	0	42.23415838762875	-10.14124826965551	0	61.12988925458423	1.066917838871997	-4.907551512388476	0	0	-10.14008443231683	4.19364153024217	2.937341041811566	3.400339859016722	-6.155747658923182	-4.432183990631563	4.803553025632784	44.99820280319465	0	5.009895661458724	3.356583735684137	0.9136442973630793	0.181893872981449	0.08653754983694559	44.99820280319465	0	5.009895661458724
4.94	9.159619945684961	-4.239265102160928	0.1870915720227613	0	0.9399999999999999	0	42.23501512557771	-10.14109529094061	0	61.12961532445163	1.066913057889263	-4.907591178957317	0	0	42.23501512557771	-10.14109529094061	0	61.12961532445163	1.066913057889263	-4.907591178957317	0	0	-10.14852931461511	4.208800270349012	2.923112111592385	3.45888446945641	-6.114790865226228	-4.894752281484883	4.556154640676092	44.99820434254397	0	5.009876647125933	3.366454693215275	0.8616827594452752	0.1767055948233228	0.08695147063763281	44.99820434254397	0	5.009876647125933
4.96	9.131042305022604	-4.24616318878097	0.09575823577255578	0	0.9399999999999999	0	42.23571139174479	-10.14097118549144	0	61.1293925078126	1.066909169005283	-4.907623403231739	0	0	42.23571139174479	-10.14097118549144	0	61.1293925078126	1.066909169005283	-4.907623403231739	0	0	-10.1310147493815	4.208565074120686	2.929948061977146	3.557694771723922	-6.134486821226073	-5.048486471411293	4.300834864596855	44.99820559185763	0	5.009861240540435	3.38068915596845	0.8263422014481254	0.1412001977991097	0.08690717473717366	44.99820559185763	0	5.009861240540435
4.98	9.068942656446675	-4.246991591815058	-0.001474449678355861	0	0.9399999999999999	0	42.2366516300031	-10.14080362667839	0	61.12909173490512	1.066903919527747	-4.907666920557644	0	0	42.2366516300031	-10.14080362667839	0	61.12909173490512	1.066903919527747	-4.907666920557644	0	0	-10.06652689882319	4.21080110262942	2.97772242818625	3.704137391764112	-6.128395638541374	-4.975236391170125	3.99000769324665	44.99820727880792	0	5.009840452139774	3.39780766425515	0.8412577956691668	0.2038827480503482	0.08707716364617085	44.99820727880792	0	5.009840452139774
5	9.025930934478607	-4.261843047932379	-0.08490244628352298	0	0.9399999999999999	0	42.23754908645441	-10.14064383740934	0	61.12880461747235	1.066898908383205	-4.907708451852155	0	0	42.23754908645441	-10.14064383740934	0	61.12880461747235	1.066898908383205	-4.907708451852155	0	0	-10.01337599962133	4.214606782054145	3.010340223959306	3.805210886680743	-6.121331341490291	-4.844110258887826	3.735944320566413	44.99820888795905	0	5.009820646737964	3.383479569398695	0.8353109728815592	0.2796127088981781	0.08769594256239804	44.99820888795905	0	5.009820646737964
5.02	9.027548294493904	-4.273908058798453	-0.1393774771243043	0	0.9399999999999999	0	42.23787232615858	-10.1405869105098	0	61.12870037465349	1.066897089002795	-4.907723368031351	0	0	42.23787232615858	-10.1405869105098	0	61.12870037465349	1.066897089002795	-4.907723368031351	0	0	-9.964657287141728	4.20650192299276	3.036863350819568	3.874221965341994	-6.157073732279521	-4.803050029406363	3.614084608551359	44.99820946241988	0	5.009813626934535	3.344933518439621	0.8103879903047537	0.3115112859724901	0.08919674771768754	44.99820946241988	0	5.009813626934535
5.04	8.925965465149678	-4.268993939282338	-0.2171001192923173	0	0.9399999999999999	0	42.23859953034861	-10.14045819452929	0	61.12846678086658	1.066893012022101	-4.90775697062254	0	0	42.23859953034861	-10.14045819452929	0	61.12846678086658	1.066893012022101	-4.90775697062254	0	0	-9.865306240927417	4.19283518209824	3.095612127155129	4.053897295651385	-6.185245498567699	-4.834332804149238	3.3807610316745	44.99821076014585	0	5.009797721684516	3.401150801014387	0.8411297432776351	0.3513713907738227	0.08926529840744996	44.99821076014585	0	5.009797721684516
5.06	8.927668325423145	-4.274250046516626	-0.252026922322429	0	0.9399999999999999	0	42.23892379062367	-10.14040109379271	0	61.12836227309037	1.066891188017312	-4.907771935200752	0	0	42.23892379062367	-10.14040109379271	0	61.12836227309037	1.066891188017312	-4.907771935200752	0	0	-9.814437266846973	4.186046150336968	3.118876517359378	4.116916123688082	-6.198164145230276	-4.788577550080511	3.263469068932185	44.99821133643669	0	5.009790685354237	3.365455899116511	0.842984818985355	0.4337266411927667	0.09004155239989541	44.99821133643669	0	5.009790685354237
5.08	8.88241876665022	-4.280164864062034	-0.2843606568593633	0	0.9399999999999999	0	42.2396372917155	-10.14027473049079	0	61.12813334370599	1.0668871924458	-4.90780491346764	0	0	42.2396372917155	-10.14027473049079	0	61.12813334370599	1.0668871924458	-4.90780491346764	0	0	-9.752289601204211	4.186818841201714	3.189732802905973	4.247129575686728	-6.263286516638529	-4.700907221342792	3.123902378346441	44.99821261045366	0	5.009775077162078	3.385433455542087	0.9117692804835099	0.512188574685964	0.08964135164236872	44.99821261045366	0	5.009775077162078
5.1	8.884632208991553	-4.279317208084185	-0.2884700896910478	0	0.9399999999999999	0	42.24015372863698	-10.14018353931334	0	61.12796731281836	1.066884294660151	-4.907828765663603	0	0	42.24015372863698	-10.14018353931334	0	61.12796731281836	1.066884294660151	-4.907828765663603	0	0	-9.705141700684971	4.165535033804508	3.251193870624908	4.357687553601995	-6.403584459060382	-4.47765679054929	3.093307789488471	44.99821353040215	0	5.009763831239325	3.356731419250003	0.9723112014761023	0.6156341370948371	0.08985105201990019	44.99821353040215	0	5.009763831239325
